<svg width="20" height="21" viewBox="0 0 20 21" fill="none" xmlns="http://www.w3.org/2000/svg">
<path fill-rule="evenodd" clip-rule="evenodd" d="M10 20.249C15.5228 20.249 20 15.7161 20 10.1245C20 4.5329 15.5228 0 10 0C4.47715 0 0 4.5329 0 10.1245C0 15.7161 4.47715 20.249 10 20.249ZM5.10882 5.82651C6.08936 5.56849 9.99613 5.56848 9.99613 5.56848C9.99613 5.56848 13.9106 5.56849 14.8912 5.84216C15.4239 5.9829 15.8485 6.41289 15.9875 6.9524C16.2577 7.94542 16.25 10.0097 16.25 10.0097C16.25 10.0097 16.25 12.0661 15.9875 13.0513C15.8485 13.5987 15.4239 14.0208 14.8912 14.1694C13.9106 14.4274 9.99613 14.4274 9.99613 14.4274C9.99613 14.4274 6.09709 14.4274 5.10882 14.1616C4.57608 14.013 4.15149 13.583 4.00479 13.0435C3.75001 12.0661 3.75 10.0019 3.75 10.0019C3.75 10.0019 3.75001 7.94542 4.00479 6.9524C4.15149 6.41289 4.5838 5.97507 5.10882 5.82651ZM12.0036 10.0019L8.75306 8.10188V11.894L12.0036 10.0019Z" fill="#fff"/>
</svg>
