<?xml version="1.0" encoding="utf-8"?>

<!DOCTYPE svg PUBLIC "-//W3C//DTD SVG 1.1//EN" "http://www.w3.org/Graphics/SVG/1.1/DTD/svg11.dtd">
<svg version="1.1" id="Layer_1" xmlns="http://www.w3.org/2000/svg" xmlns:xlink="http://www.w3.org/1999/xlink" x="0px" y="0px"
	 width="40px" height="40px" viewBox="0 0 40 40" enable-background="new 0 0 40 40" xml:space="preserve">
<g>
	<path fill-rule="evenodd" clip-rule="evenodd" d="M13.786,29.113c-1.022,0-1.853-0.829-1.853-1.85l-0.245-1.479l-0.287-1.924
		c-0.052-0.188-0.076-0.348-0.076-0.498L9.373,9.702L9.035,7.667H5.377C4.894,7.667,4.5,7.274,4.5,6.791
		c0-0.482,0.394-0.875,0.877-0.875h3.899c0.056,0,0.111,0.014,0.169,0.03l0.025,0.006l0.075,0.007
		C9.652,5.93,9.708,5.915,9.763,5.915c0.484,0,0.878,0.393,0.878,0.875l0.186,1.122l0.097-0.017
		c0.099-0.017,0.199-0.033,0.304-0.033h22.421c1.021,0,1.852,0.831,1.852,1.853v11.699c0,1.021-0.83,1.851-1.852,1.851
		c-0.092,0.001-9.072,0.071-14.472,0.638c-2.596,0.273-5.058,1.01-5.75,1.229l-0.079,0.025l0.329,2.203h18.997
		c0.482,0,0.877,0.394,0.877,0.877s-0.395,0.876-0.877,0.876H13.786z M12.445,9.618c-0.592,0-1.073,0.48-1.073,1.071l1.626,11.387
		c-0.001,0.578,0.481,1.059,1.074,1.059c0.054-0.015,1.638-0.682,4.483-1.018c4.797-0.565,14.026-0.605,14.12-0.605
		c0.59,0,1.072-0.48,1.072-1.073v-9.75c0-0.59-0.482-1.071-1.072-1.071H12.445z"/>
	<path fill-rule="evenodd" clip-rule="evenodd" d="M15.948,30.188c-1.076,0-1.948,0.872-1.948,1.949
		c0,1.076,0.872,1.948,1.948,1.948c1.079,0,1.951-0.872,1.951-1.948C17.899,31.06,17.027,30.188,15.948,30.188z"/>
	<circle fill-rule="evenodd" clip-rule="evenodd" cx="29.598" cy="32.136" r="1.949"/>
</g>
</svg>
