<?xml version="1.0" encoding="utf-8"?>

<!DOCTYPE svg PUBLIC "-//W3C//DTD SVG 1.1//EN" "http://www.w3.org/Graphics/SVG/1.1/DTD/svg11.dtd">
<svg version="1.1" id="Layer_1" xmlns="http://www.w3.org/2000/svg" xmlns:xlink="http://www.w3.org/1999/xlink" x="0px" y="0px"
	 width="40px" height="40px" viewBox="0 0 40 40" enable-background="new 0 0 40 40" xml:space="preserve">
<path fill="#af1b1b" d="M20.014,34.519c-0.225,0-0.437-0.096-0.585-0.262c-4.41-4.925-12.784-14.279-12.92-14.439
	C5.214,18.236,4.5,16.267,4.5,14.273c0-4.85,4.026-8.792,8.974-8.792c2.429,0,4.697,0.927,6.387,2.615L20,8.234l0.139-0.138
	c1.69-1.688,3.958-2.615,6.388-2.615c4.948,0,8.974,3.942,8.974,8.792c0,2.02-0.684,3.923-1.975,5.499L20.597,34.257
	C20.448,34.423,20.236,34.519,20.014,34.519L20.014,34.519z M13.474,7.05c-4.083,0-7.405,3.24-7.405,7.224
	c0,1.656,0.561,3.216,1.62,4.507c0.245,0.284,8.05,9.006,12.175,13.612l0.147,0.164l12.321-13.803
	c1.047-1.278,1.598-2.826,1.598-4.48c0-3.983-3.321-7.224-7.404-7.224c-2.339,0-4.491,1.045-5.907,2.869
	c-0.15,0.191-0.375,0.303-0.619,0.303s-0.471-0.111-0.621-0.303C17.965,8.095,15.813,7.05,13.474,7.05L13.474,7.05z"/>
</svg>
